#!OML:ASF F:\VICON\USERDATA\INSTALL\rory3\rory3.ASF
:FULLY-SPECIFIED
:DEGREES
18
root -1.17803 18.3001 -35.9994 3.84771 -1.41065 -0.283538
lowerback 3.048 -0.914256 -4.19058
upperback -2.51383 -1.29828 3.50904
thorax -4.14798 -0.466184 6.10666
lowerneck -5.25226 -12.0729 -21.1199
upperneck 14.7647 -16.4008 13.1713
head 8.3028 -8.18987 5.9777
rclavicle -6.86428e-015 -6.36111e-015
rhumerus -35.8864 -16.5614 -73.1346
rradius 24.9491
rwrist -8.24411
rhand -10.6991 17.832
rfingers 7.12502
rthumb 15.3103 -11.5813
lclavicle -6.86428e-015 -6.36111e-015
lhumerus -35.9458 17.2873 81.1916
lradius 26.4316
lwrist -9.3
lhand 0.142201 34.4003
lfingers 7.12502
lthumb 25.7266 62.6814
rfemur -10.789 1.54473 21.9985
rtibia 30.6628
rfoot 0 0
rtoes 0
lfemur -9.12326 -5.4192 -19.8888
ltibia 27.5539
lfoot 0 0
ltoes 0
19
root -1.18544 18.3019 -35.9909 3.84001 -0.941994 -0.399529
lowerback 3.22558 -1.07519 -4.01096
upperback -2.54728 -1.50858 3.53235
thorax -4.25816 -0.572009 6.04727
lowerneck -5.50078 -12.1255 -21.0354
upperneck 14.9421 -16.4168 12.9991
head 8.3857 -8.19482 5.88888
rclavicle -6.30831e-015 -2.78299e-014
rhumerus -35.8218 -16.4418 -73.2282
rradius 25.1083
rwrist -8.34699
rhand -10.6223 18.1271
rfingers 7.12502
rthumb 15.3843 -11.2805
lclavicle -6.30831e-015 -2.78299e-014
lhumerus -35.7601 17.554 81.0667
lradius 26.0362
lwrist -9.35435
lhand -0.326189 33.2792
lfingers 7.12502
lthumb 25.2779 61.6245
rfemur -10.6743 1.45163 22.2232
rtibia 30.6276
rfoot 0 0
rtoes 0
lfemur -9.12279 -5.71105 -19.6792
ltibia 27.5611
lfoot 0 0
ltoes 0
20
root -1.18666 18.3095 -35.9969 4.20844 -1.44856 -0.409703
lowerback 3.02433 -0.920337 -3.99352
upperback -2.63087 -1.29491 3.51818
thorax -4.26047 -0.46413 6.00527
lowerneck -5.65606 -12.172 -20.8989
upperneck 15.0999 -16.4405 12.7907
head 8.43891 -8.20705 5.78418
rclavicle 8.85213e-016 1.11319e-014
rhumerus -35.6585 -16.4486 -73.2707
rradius 25.2346
rwrist -8.30924
rhand -10.6246 18.2803
rfingers 7.12502
rthumb 15.3821 -11.1275
lclavicle 8.85213e-016 1.11319e-014
lhumerus -35.5617 17.6439 81.0852
lradius 25.9073
lwrist -9.37754
lhand -0.194891 32.8427
lfingers 7.12502
lthumb 25.4037 61.1702
rfemur -11.1614 1.64039 22.1492
rtibia 30.5985
rfoot 0 0
rtoes 0
lfemur -9.52272 -5.61983 -19.6944
ltibia 27.6082
lfoot 0 0
ltoes 0
21
root -1.19168 18.3094 -35.9845 4.0634 -1.00387 -0.36039
lowerback 3.05216 -1.0593 -4.00592
upperback -2.50795 -1.48388 3.49705
thorax -4.12258 -0.565612 5.99885
lowerneck -5.72196 -12.1803 -20.8299
upperneck 15.0735 -16.4478 12.8123
head 8.43867 -8.20207 5.77678
rclavicle 2.13072e-015 1.51076e-014
rhumerus -35.3852 -16.4159 -73.4079
rradius 25.4008
rwrist -8.46253
rhand -10.8231 17.9586
rfingers 7.12502
rthumb 15.1909 -11.4638
lclavicle 2.13072e-015 1.51076e-014
lhumerus -35.3769 17.5118 81.2231
lradius 26.0122
lwrist -9.37992
lhand -0.0358105 32.3951
lfingers 7.12502
lthumb 25.5561 60.7008
rfemur -10.8438 1.39196 22.1604
rtibia 30.488
rfoot 0 0
rtoes 0
lfemur -9.37802 -5.87914 -19.6921
ltibia 27.6414
lfoot 0 0
ltoes 0
22
root -1.19815 18.3078 -35.9771 4.01886 -0.892654 -0.433457
lowerback 3.11515 -1.09261 -3.94794
upperback -2.49546 -1.52647 3.51948
thorax -4.1403 -0.587985 5.99359
lowerneck -5.68137 -12.1074 -20.9162
upperneck 14.9982 -16.3761 13.0156
head 8.41962 -8.16074 5.8743
rclavicle 3.75268e-014 -4.85035e-014
rhumerus -35.2045 -16.2553 -73.547
rradius 25.5177
rwrist -8.91316
rhand -11.2965 17.3684
rfingers 7.12502
rthumb 14.7349 -12.0879
lclavicle 3.75268e-014 -4.85035e-014
lhumerus -35.3379 17.3833 81.3088
lradius 26.0436
lwrist -9.31144
lhand -0.35378 31.8452
lfingers 7.12502
lthumb 25.2515 60.1942
rfemur -10.7017 1.43075 22.2924
rtibia 30.3993
rfoot 0 0
rtoes 0
lfemur -9.3343 -5.97412 -19.5875
ltibia 27.6907
lfoot 0 0
ltoes 0
23
root -1.21043 18.31 -35.9778 4.09312 -0.767134 -0.597352
lowerback 3.17091 -1.12256 -3.83295
upperback -2.54073 -1.56049 3.55471
thorax -4.21643 -0.604504 5.9701
lowerneck -5.59337 -12.0541 -20.9977
upperneck 14.9501 -16.3438 13.2133
head 8.40734 -8.14062 5.96537
rclavicle 2.33075e-014 -1.51076e-014
rhumerus -35.0664 -16.2222 -73.6484
rradius 25.5862
rwrist -9.16904
rhand -10.6555 18.2701
rfingers 7.12502
rthumb 15.3523 -11.14
lclavicle 2.33075e-014 -1.51076e-014
lhumerus -35.3877 17.0829 81.4264
lradius 26.3752
lwrist -9.1018
lhand -0.401357 32.2132
lfingers 7.12502
lthumb 25.2059 60.5686
rfemur -10.7245 1.63564 22.5669
rtibia 30.2948
rfoot 0 0
rtoes 0
lfemur -9.44455 -5.93628 -19.3237
ltibia 27.7041
lfoot 0 0
ltoes 0
24
root -1.22125 18.3132 -35.9761 4.1765 -0.773002 -0.654931
lowerback 3.05231 -1.10341 -3.79806
upperback -2.43934 -1.53144 3.53706
thorax -4.04794 -0.598744 5.9231
lowerneck -5.84583 -12.0911 -21.0005
upperneck 15.0317 -16.3829 13.3762
head 8.50191 -8.13771 6.00169
rclavicle -2.16862e-014 -1.35174e-014
rhumerus -34.7858 -16.185 -73.8672
rradius 25.8438
rwrist -9.1057
rhand -10.7616 18.2593
rfingers 7.12502
rthumb 15.2501 -11.1585
lclavicle -2.16862e-014 -1.35174e-014
lhumerus -35.2513 16.5506 81.7313
lradius 26.9922
lwrist -8.63165
lhand -0.133559 33.2742
lfingers 7.12502
lthumb 25.4624 61.5933
rfemur -10.7671 1.83523 22.6894
rtibia 30.2063
rfoot 0 0
rtoes 0
lfemur -9.55861 -5.85449 -19.1946
ltibia 27.7265
lfoot 0 0
ltoes 0
25
root -1.22581 18.3121 -35.9647 4.12991 -0.814855 -0.636261
lowerback 2.95337 -1.08351 -3.80211
upperback -2.31659 -1.50454 3.50343
thorax -3.86774 -0.593865 5.88198
lowerneck -6.12831 -12.1281 -20.9234
upperneck 15.1709 -16.3978 13.3647
head 8.59365 -8.12965 5.96835
rclavicle -6.72141e-015 2.94201e-014
rhumerus -34.63 -16.2065 -73.9297
rradius 26.1076
rwrist -9.4233
rhand -10.552 18.2016
rfingers 7.12502
rthumb 15.4521 -11.2008
lclavicle -6.72141e-015 2.94201e-014
lhumerus -34.8631 16.3283 81.9406
lradius 26.99
lwrist -8.3264
lhand -0.150562 33.9356
lfingers 7.12502
lthumb 25.4462 62.257
rfemur -10.6304 1.88208 22.6781
rtibia 30.1392
rfoot 0 0
rtoes 0
lfemur -9.47825 -5.89987 -19.2159
ltibia 27.7522
lfoot 0 0
ltoes 0
26
root -1.22858 18.3103 -35.9523 4.09393 -0.816748 -0.747277
lowerback 2.89825 -1.07313 -3.65533
upperback -2.31945 -1.48238 3.49986
thorax -3.84537 -0.587517 5.79128
lowerneck -5.97946 -12.1472 -20.7686
upperneck 15.2007 -16.4327 13.1376
head 8.54839 -8.15998 5.86937
rclavicle 8.51047e-015 -1.82882e-014
rhumerus -34.6883 -15.9463 -74.0935
rradius 26.519
rwrist -10.014
rhand -10.667 17.9155
rfingers 7.12502
rthumb 15.3413 -11.4954
lclavicle 8.51047e-015 -1.82882e-014
lhumerus -34.8664 16.258 81.9261
lradius 26.9579
lwrist -8.26638
lhand -0.365355 33.0508
lfingers 7.12502
lthumb 25.2404 61.4014
rfemur -10.5227 1.84921 22.8068
rtibia 30.11
rfoot 0 0
rtoes 0
lfemur -9.39757 -5.95918 -19.1038
ltibia 27.7518
lfoot 0 0
ltoes 0
